<?xml version="1.0" encoding="UTF-8"?>
<svg width="879px" height="162px" viewBox="0 0 879 162" version="1.1" xmlns="http://www.w3.org/2000/svg" xmlns:xlink="http://www.w3.org/1999/xlink">
    <!-- Generator: Sketch 46.2 (44496) - http://www.bohemiancoding.com/sketch -->
    <title>excedo33</title>
    <desc>Created with Sketch.</desc>
    <defs>
        <radialGradient cx="50%" cy="0%" fx="50%" fy="0%" r="100%" gradientTransform="translate(0.500000,0.000000),scale(1.000000,0.012346),rotate(90.000000),translate(-0.500000,-0.000000)" id="radialGradient-1">
            <stop stop-color="#EAEFF3" offset="0%"></stop>
            <stop stop-color="#D1DAE3" offset="100%"></stop>
        </radialGradient>
    </defs>
    <g id="Page-1" stroke="none" stroke-width="1" fill="none" fill-rule="evenodd">
        <g id="excedo33">
            <g id="content">
                <g id="powered-by" transform="translate(644.000000, 48.000000)"></g>
                <g id="final">
                    <text id="Powered-by-Zamenhof." font-family="Montserrat-Medium, Montserrat" font-size="36" font-weight="400" letter-spacing="0.177777797" fill-opacity="0.3" fill="#0D2B3E">
                        <tspan x="660.754222" y="116">Powered by</tspan>
                        <tspan x="617.342666" y="160">Zamenhof.net</tspan>
                    </text>
                    <path d="M583,81 L583,81 C583,125.763158 582.994061,162 582.986853,162 L581.013147,162 C581.005939,162 581,125.763158 581,81 L581,81 C581,36.2368421 581.005939,0 581.013147,0 L582.986853,0 C582.994061,0 583,36.2368421 583,81 L583,81 Z" id="Shape" fill="url(#radialGradient-1)"></path>
                    <g id="Excedo" fill="#0D2B3E">
                        <path d="M42.53,33.51 C55.12,33.51 66.44,39.14 74.12,48.1 L23.92,101.94 C29.14,105.78 35.58,108.07 42.53,108.07 C56.08,108.07 67.66,99.42 72.2,87.3 L81.91,90.31 C76.1,106.64 60.65,118.34 42.53,118.34 C19.4,118.34 0.66,99.34 0.66,75.93 C0.66,52.49 19.4,33.52 42.53,33.52 L42.53,33.52 L42.53,33.51 Z M59.17,48.57 L16.49,94.31 C12.91,89.09 10.81,82.76 10.81,75.93 C10.81,58.17 25.01,43.8 42.53,43.8 C48.63,43.8 54.31,45.54 59.17,48.58 L59.17,48.57 Z M502.65,43.79 C520.17,43.79 534.37,58.17 534.37,75.93 C534.37,93.66 520.17,108.06 502.65,108.06 C485.16,108.06 470.96,93.65 470.96,75.93 C470.96,58.17 485.16,43.79 502.65,43.79 Z M400.38,43.79 C417.9,43.79 432.1,58.17 432.1,75.93 C432.1,93.66 417.9,108.06 400.38,108.06 C382.86,108.06 368.66,93.65 368.66,75.93 C368.66,58.17 382.86,43.79 400.38,43.79 Z M432.54,103.08 L432.54,103.08 L460.86,73.47 C460.84,74.3 460.81,75.1 460.81,75.93 C460.81,99.34 479.55,118.34 502.65,118.34 C525.78,118.34 544.52,99.34 544.52,75.93 C544.52,52.49 525.78,33.52 502.65,33.52 C491.39,33.52 481.13,38.04 473.61,45.41 L473.61,45.39 L473.55,45.47 C472.9,46.09 472.25,46.77 471.63,47.47 L442.17,78.23 L442.2,78.23 L441.29,79.17 L441.29,66.86 L441.29,0.15 L431.55,0.15 L431.55,47.63 C423.87,38.96 412.76,33.54 400.38,33.54 C377.25,33.54 358.51,52.51 358.51,75.95 C358.51,99.36 377.25,118.36 400.38,118.36 C413.31,118.36 424.86,112.42 432.54,103.1 L432.54,103.08 Z M158.95,35.36 L172.19,35.41 L137.33,76.89 L137.23,77.02 L172.19,116.63 L158.98,116.63 L130.45,84.62 L101.95,116.63 L88.71,116.63 L123.67,77.02 L123.56,76.89 L88.7,35.41 L101.94,35.36 L130.29,69.62 L130.45,69.8 L130.6,69.62 L158.95,35.36 Z M312.75,33.52 C325.34,33.52 336.66,39.15 344.34,48.11 L294.14,101.95 C299.38,105.79 305.79,108.08 312.75,108.08 C326.3,108.08 337.88,99.43 342.42,87.31 L352.12,90.32 C346.33,106.65 330.89,118.35 312.75,118.35 C291.88,118.35 274.59,102.91 271.4,82.68 C263.8,90.62 252.82,103.89 244.35,110.17 C237.42,115.31 228.88,118.35 219.64,118.35 C196.51,118.35 177.77,99.35 177.77,75.94 C177.77,52.5 196.51,33.52 219.64,33.52 C230.28,33.52 240.01,37.54 247.39,44.19 L240.54,51.77 C234.96,46.81 227.64,43.8 219.65,43.8 C202.13,43.8 187.93,58.18 187.93,75.93 C187.93,93.66 202.13,108.07 219.65,108.07 C227.46,108.07 234.6,105.19 240.13,100.44 C250.9,91.2 262.04,77.83 271.72,67.4 C275.64,48.06 292.51,33.53 312.76,33.53 L312.76,33.53 L312.75,33.52 Z M329.39,48.58 L286.71,94.32 C283.13,89.1 281.02,82.77 281.02,75.94 C281.02,58.18 295.22,43.81 312.74,43.81 C318.84,43.81 324.55,45.55 329.38,48.59 L329.39,48.58 Z"></path>
                        <path d="M0.66,133.29 L0.66,137.99 L9.28,137.99 L9.28,160.95 L14.61,160.95 L14.61,137.99 L23.23,137.99 L23.23,133.29 L0.66,133.29 L0.66,133.29 Z M40.98,139.65 C34.66,139.65 30.23,144 30.23,150.44 C30.23,156.81 34.54,161.15 41.1,161.15 C44.82,161.15 47.9,159.81 49.99,157.52 L47.22,154.63 C45.72,156.17 43.7,157 41.53,157 C38.45,157 36.15,155.18 35.48,152.18 L51.09,152.18 C51.61,144.51 48.4,139.65 40.97,139.65 L40.98,139.65 Z M35.37,148.74 C35.85,145.61 37.98,143.64 41.02,143.64 C44.22,143.64 46.32,145.62 46.44,148.74 L35.37,148.74 L35.37,148.74 Z M81.24,160.95 L81.2,147.12 C81.16,142.42 78.03,139.61 72.49,139.61 C68.62,139.61 66.25,140.52 63.2,142.22 L65.06,145.78 C67.23,144.47 69.37,143.8 71.34,143.8 C74.51,143.8 76.13,145.26 76.13,147.71 L76.13,148.26 L69.96,148.26 C64.82,148.3 61.93,150.71 61.93,154.63 C61.93,158.38 64.78,161.19 69.32,161.19 C72.32,161.19 74.7,160.24 76.17,158.38 L76.17,160.95 L81.23,160.95 L81.24,160.95 Z M70.55,157.23 C68.22,157.23 66.79,156.08 66.79,154.3 C66.79,152.44 68.06,151.69 70.78,151.69 L76.13,151.69 L76.13,153.59 C75.85,155.65 73.52,157.22 70.55,157.22 L70.55,157.23 Z M109.65,146.48 L112.77,143.52 C110.87,141.07 107.79,139.65 103.92,139.65 C97.56,139.65 93.17,144 93.17,150.44 C93.17,156.81 97.52,161.15 103.84,161.15 C107.99,161.15 111.15,159.57 113.01,156.88 L109.81,154.23 C108.55,155.89 106.57,156.72 104.12,156.72 C100.72,156.72 98.35,154.19 98.35,150.39 C98.35,146.68 100.72,144.15 104.12,144.15 C106.45,144.15 108.31,145.02 109.66,146.48 L109.65,146.48 Z M138.47,139.6 C134.99,139.64 132.34,140.95 130.84,143.83 L130.84,131.61 L125.7,131.61 L125.7,160.94 L130.84,160.94 L130.84,150.54 C130.84,147.06 132.93,144.49 136.41,144.45 C139.34,144.45 141.11,146.27 141.11,149.23 L141.11,160.93 L146.29,160.93 L146.29,147.73 C146.29,142.71 143.33,139.58 138.46,139.58 L138.47,139.6 Z M168.99,139.64 C162.67,139.64 158.24,143.99 158.24,150.43 C158.24,156.8 162.55,161.14 169.11,161.14 C172.83,161.14 175.91,159.8 178,157.51 L175.23,154.62 C173.73,156.16 171.71,156.99 169.54,156.99 C166.46,156.99 164.16,155.17 163.49,152.17 L179.1,152.17 C179.62,144.5 176.41,139.64 168.98,139.64 L168.99,139.64 Z M163.38,148.73 C163.86,145.6 165.99,143.63 169.03,143.63 C172.23,143.63 174.33,145.61 174.45,148.73 L163.38,148.73 Z M196.82,143.87 L196.82,139.8 L191.68,139.8 L191.68,160.95 L196.82,160.95 L196.82,150.75 C196.82,146.92 199.55,144.31 204.02,144.58 L204.02,139.6 C200.74,139.64 198.25,141.1 196.82,143.87 L196.82,143.87 Z M225.84,133.28 L225.84,160.95 L231.14,160.95 L231.14,133.28 L225.84,133.28 L225.84,133.28 Z M258.57,139.6 C255.13,139.64 252.48,140.95 250.98,143.75 L250.98,139.8 L245.84,139.8 L245.84,160.95 L250.98,160.95 L250.98,150.55 C250.98,147.07 253.04,144.5 256.52,144.46 C259.45,144.46 261.22,146.28 261.22,149.24 L261.22,160.94 L266.4,160.94 L266.4,147.74 C266.4,142.72 263.44,139.59 258.57,139.59 L258.57,139.6 Z M292.81,145.53 L294.67,141.82 C292.58,140.39 289.69,139.56 286.92,139.56 C282.65,139.56 278.94,141.58 278.94,145.93 C278.9,153.44 289.93,151.3 289.93,155.22 C289.93,156.61 288.59,157.2 286.81,157.2 C284.52,157.2 281.59,156.25 279.66,154.59 L277.88,158.18 C280.09,160.12 283.41,161.14 286.62,161.14 C291.12,161.14 294.96,159.05 294.96,154.74 C294.96,147.15 283.77,149.01 283.77,145.45 C283.77,144.15 284.96,143.59 286.62,143.59 C288.43,143.59 290.77,144.3 292.82,145.53 L292.81,145.53 Z M318.62,155.77 C317.47,156.32 316.48,156.64 315.62,156.64 C314.23,156.64 313.4,155.97 313.4,153.95 L313.4,144.42 L319.45,144.42 L319.45,140.66 L313.4,140.66 L313.4,134.85 L308.3,134.85 L308.3,140.66 L305.3,140.66 L305.34,144.42 L308.3,144.42 L308.3,154.86 C308.3,159.21 311.07,161.18 314.5,161.18 C316.36,161.18 318.18,160.63 319.8,159.64 L318.61,155.77 L318.62,155.77 Z M337.08,143.87 L337.08,139.8 L331.94,139.8 L331.94,160.95 L337.08,160.95 L337.08,150.75 C337.08,146.92 339.81,144.31 344.28,144.58 L344.28,139.6 C341,139.64 338.51,141.1 337.08,143.87 L337.08,143.87 Z M370.33,139.8 L370.33,150.23 C370.33,153.63 368.35,156.24 365.03,156.28 C362.19,156.28 360.49,154.5 360.49,151.54 L360.49,139.8 L355.31,139.8 L355.31,153.04 C355.31,158.02 358.24,161.14 362.98,161.14 C366.34,161.14 368.87,159.84 370.33,157.03 L370.33,160.94 L375.51,160.94 L375.51,139.79 L370.33,139.79 L370.33,139.8 Z M404.56,146.48 L407.68,143.52 C405.78,141.07 402.7,139.65 398.83,139.65 C392.47,139.65 388.08,144 388.08,150.44 C388.08,156.81 392.43,161.15 398.75,161.15 C402.9,161.15 406.06,159.57 407.92,156.88 L404.72,154.23 C403.46,155.89 401.48,156.72 399.03,156.72 C395.63,156.72 393.26,154.19 393.26,150.39 C393.26,146.68 395.63,144.15 399.03,144.15 C401.36,144.15 403.22,145.02 404.57,146.48 L404.56,146.48 Z M431.6,155.77 C430.45,156.32 429.46,156.64 428.6,156.64 C427.21,156.64 426.38,155.97 426.38,153.95 L426.38,144.42 L432.43,144.42 L432.43,140.66 L426.38,140.66 L426.38,134.85 L421.28,134.85 L421.28,140.66 L418.28,140.66 L418.32,144.42 L421.28,144.42 L421.28,154.86 C421.28,159.21 424.05,161.18 427.48,161.18 C429.34,161.18 431.16,160.63 432.78,159.64 L431.59,155.77 L431.6,155.77 Z M447.49,130.71 C445.79,130.71 444.6,131.98 444.6,133.75 C444.6,135.49 445.79,136.8 447.49,136.8 C449.19,136.8 450.38,135.49 450.38,133.75 C450.38,131.97 449.19,130.71 447.49,130.71 Z M444.92,139.8 L444.92,160.95 L450.06,160.95 L450.06,139.8 L444.92,139.8 Z M473.74,139.64 C467.14,139.64 462.59,143.95 462.59,150.35 C462.59,156.79 467.14,161.14 473.74,161.14 C480.38,161.14 484.93,156.79 484.93,150.35 C484.93,143.95 480.38,139.64 473.74,139.64 Z M473.74,144.07 C477.26,144.07 479.71,146.64 479.71,150.43 C479.71,154.23 477.26,156.84 473.74,156.84 C470.26,156.84 467.81,154.23 467.81,150.43 C467.81,146.64 470.26,144.07 473.74,144.07 Z M510.22,139.6 C506.78,139.64 504.13,140.95 502.63,143.75 L502.63,139.8 L497.49,139.8 L497.49,160.95 L502.63,160.95 L502.63,150.55 C502.63,147.07 504.69,144.5 508.17,144.46 C511.1,144.46 512.87,146.28 512.87,149.24 L512.87,160.94 L518.05,160.94 L518.05,147.74 C518.05,142.72 515.09,139.59 510.22,139.59 L510.22,139.6 Z M544.46,145.53 L546.32,141.82 C544.23,140.39 541.34,139.56 538.57,139.56 C534.3,139.56 530.59,141.58 530.59,145.93 C530.55,153.44 541.58,151.3 541.58,155.22 C541.58,156.61 540.24,157.2 538.46,157.2 C536.17,157.2 533.24,156.25 531.31,154.59 L529.53,158.18 C531.74,160.12 535.06,161.14 538.27,161.14 C542.77,161.14 546.61,159.05 546.61,154.74 C546.61,147.15 535.42,149.01 535.42,145.45 C535.42,144.15 536.61,143.59 538.27,143.59 C540.08,143.59 542.42,144.3 544.47,145.53 L544.46,145.53 Z" id="Teacher-instructions" fill-rule="nonzero"></path>
                    </g>
                </g>
            </g>
        </g>
    </g>
</svg>