<?xml version="1.0" encoding="UTF-8"?>
<svg width="249px" height="68px" viewBox="0 0 249 68" version="1.1" xmlns="http://www.w3.org/2000/svg" xmlns:xlink="http://www.w3.org/1999/xlink">
    <!-- Generator: Sketch 46.2 (44496) - http://www.bohemiancoding.com/sketch -->
    <title>logo_white</title>
    <desc>Created with Sketch.</desc>
    <defs>
        <path d="M26.9573394,0.0136 C35.6201835,0.0136 43.3252294,4.21464 48.2449541,10.7372 C43.8454128,6.00984 37.6417431,3.06544 30.7665138,3.06544 C17.4220183,3.06544 6.60412844,14.16032 6.60412844,27.84736 C6.60412844,41.5344 17.4220183,52.62928 30.7665138,52.62928 C36.5559633,52.62928 41.8692661,50.53896 46.0307339,47.05736 C41.1591743,52.08256 34.4119266,55.19288 26.9573394,55.19288 C12.1018349,55.19288 0.0577981651,42.84 0.0577981651,27.60256 C0.0577981651,12.36648 12.1004587,0.0136 26.9573394,0.0136" id="path-1"></path>
        <path d="M45.0316514,54.57952 C39.5779817,60.8736 31.6266055,64.84072 22.7697248,64.84072 C15.6344037,64.84072 9.08669725,62.26488 3.95917431,57.97272 C9.96330275,64.16616 18.2766055,68 27.4637615,68 C37.9307339,68 47.2637615,63.0224 53.3394495,55.25 C52.7311927,55.22144 52.1229358,55.19288 51.5146789,55.19288 C50.1922018,55.21736 48.8848624,55.31256 47.5513761,55.31256 C46.612844,55.31256 45.7389908,55.0528 45.0316514,54.57952 L45.0316514,54.57952 Z M27.4637615,0 C16.7889908,0 7.29357798,5.17752 1.23027523,13.21512 C6.65229358,7.39024 14.2981651,3.7604 22.7697248,3.7604 C39.2146789,3.7604 52.5454128,17.43384 52.5454128,34.30056 C52.5454128,34.57936 52.5412844,34.8568 52.5344037,35.13288 L56.7178899,25.1532 C57.1706422,24.0448 57.7692661,23.0316 58.6197248,22.35976 C53.9848624,9.316 41.7853211,0 27.4637615,0 Z" id="path-3"></path>
        <polygon id="path-5" points="1.48486239 2.37728 1.48486239 13.83528 9.76788991 6.91968 17.7605505 6.91968 1.19724771 33.3472 30.4362385 1.09616"></polygon>
        <polygon id="path-7" points="29.4619266 35.76256 29.4619266 31.39968 29.4619266 21.79944 21.1802752 30.226 13.1876147 30.226 28.5963303 0.7344 0.426605505 35.94344 17.3215596 35.83872 20.0408257 35.82104"></polygon>
    </defs>
    <g id="Page-1" stroke="none" stroke-width="1" fill="none" fill-rule="evenodd">
        <g id="logo_white" transform="translate(1.000000, 0.000000)">
            <g id="Group" transform="translate(0.000000, 6.800000)">
                <g id="SVGID_1_-link" fill-rule="nonzero" fill="#0D2B3E">
                    <path d="M26.9573394,0.0136 C35.6201835,0.0136 43.3252294,4.21464 48.2449541,10.7372 C43.8454128,6.00984 37.6417431,3.06544 30.7665138,3.06544 C17.4220183,3.06544 6.60412844,14.16032 6.60412844,27.84736 C6.60412844,41.5344 17.4220183,52.62928 30.7665138,52.62928 C36.5559633,52.62928 41.8692661,50.53896 46.0307339,47.05736 C41.1591743,52.08256 34.4119266,55.19288 26.9573394,55.19288 C12.1018349,55.19288 0.0577981651,42.84 0.0577981651,27.60256 C0.0577981651,12.36648 12.1004587,0.0136 26.9573394,0.0136" id="SVGID_1_"></path>
                </g>
                <g id="Clipped">
                    <g id="SVGID_1_" stroke="#FFFFFF" fill-rule="nonzero" fill="#0D2B3E">
                        <path d="M26.9573394,0.0136 C35.6201835,0.0136 43.3252294,4.21464 48.2449541,10.7372 C43.8454128,6.00984 37.6417431,3.06544 30.7665138,3.06544 C17.4220183,3.06544 6.60412844,14.16032 6.60412844,27.84736 C6.60412844,41.5344 17.4220183,52.62928 30.7665138,52.62928 C36.5559633,52.62928 41.8692661,50.53896 46.0307339,47.05736 C41.1591743,52.08256 34.4119266,55.19288 26.9573394,55.19288 C12.1018349,55.19288 0.0577981651,42.84 0.0577981651,27.60256 C0.0577981651,12.36648 12.1004587,0.0136 26.9573394,0.0136" id="path-1"></path>
                    </g>
                    <g id="Shape-Clipped">
                        <mask id="mask-2" fill="white">
                            <use xlink:href="#path-1"></use>
                        </mask>
                        <g id="path-1"></g>
                        <polygon id="Shape" stroke="#FFFFFF" fill="#0D2B3E" fill-rule="nonzero" mask="url(#mask-2)" points="59.5334862 52.6456 46.0197248 -10.35776 -11.2321101 2.56088 2.28165138 65.56424"></polygon>
                    </g>
                </g>
            </g>
            <g id="Clipped" transform="translate(4.128440, 0.000000)">
                <g id="Shape-Clipped">
                    <mask id="mask-4" fill="white">
                        <use xlink:href="#path-3"></use>
                    </mask>
                    <g id="path-3"></g>
                    <polygon id="Shape" fill="#0D2B3E" fill-rule="nonzero" mask="url(#mask-4)" points="12.0220183 -22.99896 -24.6756881 55.21328 47.8279817 91.00032 84.5243119 12.78672"></polygon>
                </g>
            </g>
            <g id="Group" transform="translate(13.761468, 16.320000)">
                <g id="SVGID_6_-link" fill-rule="nonzero" fill="#0D2B3E">
                    <polygon id="SVGID_6_" points="1.48486239 2.37728 1.48486239 13.83528 9.76788991 6.91968 17.7605505 6.91968 1.19724771 33.3472 30.4362385 1.09616"></polygon>
                </g>
                <g id="Clipped">
                    <g id="SVGID_6_" fill-rule="nonzero" fill="#0D2B3E">
                        <polygon id="path-5" points="1.48486239 2.37728 1.48486239 13.83528 9.76788991 6.91968 17.7605505 6.91968 1.19724771 33.3472 30.4362385 1.09616"></polygon>
                    </g>
                    <g id="Shape-Clipped">
                        <mask id="mask-6" fill="white">
                            <use xlink:href="#path-5"></use>
                        </mask>
                        <g id="path-5"></g>
                        <polygon id="Shape" fill="#0D2B3E" fill-rule="nonzero" mask="url(#mask-6)" points="37.0348624 31.858 29.0862385 -5.19792 -5.4 2.584 2.54724771 39.63992"></polygon>
                    </g>
                </g>
            </g>
            <g id="Clipped" transform="translate(16.513761, 16.320000)">
                <g id="Shape-Clipped">
                    <mask id="mask-8" fill="white">
                        <use xlink:href="#path-7"></use>
                    </mask>
                    <g id="path-7"></g>
                    <polygon id="Shape" fill="#0D2B3E" fill-rule="nonzero" mask="url(#mask-8)" points="4.34449541 -9.4384 -11.2995413 31.19432 25.5454128 46.1176 41.1894495 5.48488"></polygon>
                </g>
            </g>
            <path d="M237.385321,36.85464 C237.385321,36.5772 237.462385,36.49696 237.656422,36.49696 C238.31422,36.49696 242.419266,36.49696 243.388073,36.61664 C244.588073,36.77576 245.168807,37.48976 245.362844,38.046 C245.516972,38.522 245.595413,38.99936 245.595413,39.2768 C245.595413,39.55424 245.672477,39.83304 245.905046,39.83304 C246.293119,39.83304 246.293119,39.43592 246.293119,39.07824 C246.293119,38.8008 246.370183,36.97296 246.447248,36.17872 C246.562844,34.94792 246.756881,33.95376 246.756881,33.71576 C246.756881,33.47776 246.679817,33.35808 246.524312,33.35808 C246.291743,33.35808 246.214679,33.5172 246.020642,33.7552 C245.633945,34.272 245.091743,34.42976 244.355505,34.47056 C243.813303,34.51 243.271101,34.51 242.613303,34.51 L237.656422,34.54944 C237.423853,34.54944 237.385321,34.42976 237.385321,34.19176 L237.385321,24.2624 C237.385321,23.82584 237.500917,23.70616 237.733486,23.70616 L243.69633,23.82584 C245.167431,23.86528 245.980734,24.46096 246.251835,25.0172 C246.484404,25.57344 246.484404,26.20856 246.484404,26.5268 C246.522936,26.96336 246.601376,27.16192 246.871101,27.16192 C247.142202,27.16192 247.219266,26.92392 247.257798,26.60568 C247.334862,26.12968 247.413303,23.78504 247.451835,23.38792 C247.567431,22.35568 247.761468,21.87832 247.761468,21.60088 C247.761468,21.40232 247.644495,21.2432 247.490367,21.2432 C247.29633,21.2432 247.10367,21.40232 246.871101,21.4812 C246.484404,21.60088 246.019266,21.60088 245.283028,21.64032 C244.392661,21.67976 236.530734,21.67976 235.059633,21.67976 C234.517431,21.67976 233.627064,21.64032 232.619725,21.60088 C231.612385,21.60088 230.48945,21.56144 229.483486,21.56144 C228.902752,21.56144 228.593119,21.64032 228.593119,21.95856 C228.593119,22.19656 228.86422,22.2768 229.250917,22.2768 C229.793119,22.2768 230.450917,22.31624 230.761927,22.39648 C232.038991,22.67392 232.35,23.3104 232.427064,24.66088 C232.504128,25.93248 232.504128,27.0436 232.504128,33.08064 L232.504128,40.07104 C232.504128,43.88448 232.504128,46.86288 232.310092,48.5316 C232.155963,49.68352 231.961927,50.55664 231.187156,50.71576 C230.838991,50.796 230.373853,50.87488 229.793119,50.87488 C229.366514,50.87488 229.212385,50.99456 229.212385,51.19312 C229.212385,51.51136 229.483486,51.59024 230.025688,51.59024 C231.496789,51.59024 233.936697,51.47056 234.944037,51.47056 C235.951376,51.47056 238.389908,51.59024 240.829817,51.59024 C241.41055,51.59024 241.681651,51.47056 241.681651,51.19312 C241.681651,50.99456 241.527523,50.87488 241.023853,50.87488 C240.481651,50.87488 239.629817,50.796 239.087615,50.71576 C237.926147,50.55664 237.693578,49.68352 237.576606,48.5316 C237.382569,46.86424 237.382569,43.88448 237.382569,40.07104 L237.382569,36.85464 L237.385321,36.85464 Z M212.547248,50.20032 C206.119266,50.20032 202.246789,44.71952 202.246789,37.76856 C202.246789,29.42768 206.7,27.36184 210.495413,27.36184 C215.994495,27.36184 220.370642,31.96952 220.370642,39.43592 C220.369266,49.0484 214.947248,50.20032 212.547248,50.20032 Z M211.153211,52.0268 C219.944037,52.0268 225.441743,45.95032 225.441743,38.20512 C225.441743,30.45992 220.098165,25.5748 211.501376,25.5748 C201.162385,25.5748 197.212844,33.0412 197.212844,38.8008 C197.212844,44.7984 201.23945,52.0268 211.153211,52.0268 Z M173.767431,37.0532 C173.650459,37.0532 173.534862,37.01376 173.534862,36.8152 L173.534862,36.09984 C173.534862,30.97672 173.534862,29.74456 173.611927,28.67288 C173.688991,27.48152 173.960092,27.00416 174.890367,26.8464 C175.277064,26.76752 175.588073,26.72672 175.859174,26.72672 C176.284404,26.72672 176.47844,26.60704 176.47844,26.36904 C176.47844,26.13104 176.245872,26.0508 175.78211,26.0508 C174.426606,26.0508 172.065138,26.12968 171.251835,26.12968 C170.322936,26.12968 168.077064,26.0508 166.256422,26.0508 C165.791284,26.0508 165.520183,26.12968 165.520183,26.36904 C165.520183,26.60704 165.752752,26.72672 166.100917,26.72672 C166.604587,26.72672 167.185321,26.76616 167.456422,26.8464 C168.540826,27.16464 168.850459,27.52096 168.927523,28.67288 C168.966055,29.74456 168.966055,30.69792 168.966055,35.8224 L168.966055,41.78056 C168.966055,44.87864 168.966055,47.54016 168.81055,48.96952 C168.694954,49.96232 168.500917,50.59744 167.803211,50.75656 C167.493578,50.8368 167.105505,50.87624 166.603211,50.87624 C166.177982,50.87624 166.061009,51.0748 166.061009,51.23392 C166.061009,51.47192 166.293578,51.5916 166.718807,51.5916 C168.074312,51.5916 170.320183,51.47192 171.094954,51.47192 C172.063761,51.47192 174.425229,51.5916 176.632569,51.5916 C177.059174,51.5916 177.330275,51.47192 177.330275,51.23392 C177.330275,51.0748 177.174771,50.87624 176.788073,50.87624 C176.284404,50.87624 175.511009,50.8368 175.045872,50.75656 C174.038532,50.59744 173.845872,49.96232 173.728899,49.00896 C173.574771,47.5388 173.534862,44.95752 173.534862,41.85944 L173.534862,39.2768 C173.534862,39.11768 173.650459,39.07824 173.767431,39.07824 L186.623394,39.07824 C186.700459,39.07824 186.817431,39.15712 186.817431,39.2768 L186.817431,41.85808 C186.817431,44.95616 186.817431,47.53744 186.663303,48.96816 C186.54633,49.96096 186.35367,50.59608 185.655963,50.7552 C185.34633,50.83544 184.958257,50.87488 184.417431,50.87488 C184.029358,50.87488 183.875229,51.07344 183.875229,51.23256 C183.875229,51.47056 184.14633,51.59024 184.611468,51.59024 C185.92844,51.59024 188.32844,51.47056 189.103211,51.47056 C190.03211,51.47056 192.277982,51.59024 194.485321,51.59024 C194.91055,51.59024 195.183028,51.47056 195.183028,51.23256 C195.183028,51.07344 194.988991,50.87488 194.640826,50.87488 C194.098624,50.87488 193.362385,50.83544 192.898624,50.7552 C191.852752,50.59608 191.658716,49.96096 191.543119,49.0076 C191.388991,47.53744 191.388991,44.87728 191.388991,41.7792 L191.388991,35.8224 C191.388991,30.69928 191.388991,29.74592 191.466055,28.67288 C191.543119,27.48152 191.81422,27.00416 192.704587,26.8464 C193.131193,26.76752 193.440826,26.72672 193.711927,26.72672 C194.1,26.72672 194.331193,26.60704 194.331193,26.36904 C194.331193,26.13104 194.098624,26.0508 193.594954,26.0508 C192.277982,26.0508 190.03211,26.12968 189.218807,26.12968 C188.32844,26.12968 185.927064,26.0508 184.107798,26.0508 C183.604128,26.0508 183.37156,26.12968 183.37156,26.36904 C183.37156,26.60704 183.565596,26.72672 183.952294,26.72672 C184.417431,26.72672 184.998165,26.76616 185.269266,26.8464 C186.35367,27.16464 186.663303,27.52096 186.740367,28.67288 C186.778899,29.74456 186.817431,30.97672 186.817431,36.09984 L186.817431,36.8152 C186.817431,37.01376 186.701835,37.0532 186.623394,37.0532 L173.767431,37.0532 L173.767431,37.0532 Z M139.363761,33.20032 L139.479358,33.20032 C140.137156,33.796 143.733028,37.88688 147.45,41.5412 C151.012844,45.07584 155.266514,49.2456 157.395413,51.272 C157.743578,51.62968 158.215596,51.98736 158.79633,51.98736 C159.067431,51.98736 159.338532,51.66912 159.338532,50.91432 L159.725229,29.62624 C159.763761,27.71952 160.034862,27.12384 160.963761,26.8464 C161.390367,26.72672 161.661468,26.72672 162.009633,26.72672 C162.39633,26.72672 162.590367,26.5676 162.590367,26.36904 C162.590367,26.0916 162.280734,26.0508 161.815596,26.0508 C160.150459,26.0508 158.872018,26.12968 158.485321,26.12968 C157.743578,26.12968 155.922936,26.0508 154.142202,26.0508 C153.638532,26.0508 153.290367,26.09024 153.290367,26.36904 C153.290367,26.5676 153.405963,26.72672 153.832569,26.72672 C154.297706,26.72672 155.109633,26.72672 155.613303,26.92528 C156.426606,27.24352 156.736239,27.8392 156.774771,29.90368 L157.122936,44.91672 L156.968807,44.91672 C156.465138,44.44072 151.934862,39.67392 149.617431,37.33064 C144.66055,32.36528 139.555046,27.00416 139.129817,26.5676 C138.549083,25.97192 138.083945,25.45512 137.658716,25.45512 C137.31055,25.45512 137.077982,25.93112 137.077982,26.60704 L136.768349,46.62488 C136.729817,49.56384 136.612844,50.47776 135.722477,50.71576 C135.257339,50.83544 134.638073,50.87488 134.172936,50.87488 C133.863303,50.87488 133.630734,51.034 133.630734,51.23256 C133.630734,51.5508 133.940367,51.59024 134.405505,51.59024 C136.147706,51.59024 137.774312,51.47056 138.083945,51.47056 C138.703211,51.47056 140.291284,51.59024 142.491743,51.59024 C142.956881,51.59024 143.266514,51.51136 143.266514,51.23256 C143.266514,51.034 143.072477,50.87488 142.68578,50.87488 C142.143578,50.87488 141.48578,50.83544 140.905046,50.63688 C140.252752,50.39888 139.827523,49.60464 139.750459,46.98256 L139.363761,33.20032 Z M117.312385,41.7792 C117.312385,44.87728 117.312385,47.5388 117.156881,48.96816 C117.041284,49.96096 116.847248,50.59608 116.149541,50.7552 C115.839908,50.83544 115.451835,50.87488 114.949541,50.87488 C114.522936,50.87488 114.407339,51.07344 114.407339,51.23256 C114.407339,51.47056 114.639908,51.59024 115.065138,51.59024 C115.762844,51.59024 116.614679,51.5508 117.427982,51.51136 C118.241284,51.51136 118.976147,51.47192 119.36422,51.47192 C120.37156,51.47192 121.648624,51.51136 123.313761,51.5508 C124.978899,51.62968 127.030734,51.67048 129.587615,51.67048 C130.866055,51.67048 131.175688,51.67048 131.408257,50.79736 C131.602294,50.1228 131.873394,47.81896 131.873394,47.06416 C131.873394,46.70648 131.834862,46.26992 131.563761,46.26992 C131.331193,46.26992 131.254128,46.42904 131.177064,46.78672 C130.944495,48.17664 130.557798,48.892 129.705963,49.28912 C128.815596,49.68624 127.383028,49.72568 126.491284,49.72568 C123.005505,49.72568 121.961009,49.20888 121.882569,46.90504 C121.844037,45.91224 121.882569,43.05216 121.882569,41.90024 L121.882569,39.19928 C121.882569,39.00072 121.921101,38.8416 122.076606,38.8416 C122.92844,38.8416 126.800917,38.92048 127.420183,39.00072 C128.697248,39.1204 129.123853,39.63584 129.31789,40.31176 C129.394954,40.74832 129.394954,41.18624 129.433486,41.54256 C129.433486,41.70168 129.51055,41.82 129.743119,41.82 C130.052752,41.82 130.091284,41.344 130.091284,41.0652 C130.091284,40.8272 130.168349,39.47672 130.245413,38.8008 C130.43945,37.09264 130.516514,36.5364 130.516514,36.33784 C130.516514,36.13928 130.399541,35.98016 130.245413,35.98016 C130.091284,35.98016 129.974312,36.17872 129.703211,36.41672 C129.393578,36.7744 128.889908,36.85328 128.076606,36.93352 C127.301835,37.0124 122.887156,37.0124 122.112385,37.0124 C121.918349,37.0124 121.879817,36.85328 121.879817,36.65472 L121.879817,28.3152 C121.879817,28.11664 121.956881,27.99696 122.112385,27.99696 C122.808716,27.99696 126.875229,28.07584 127.455963,28.15608 C129.159633,28.3152 129.430734,28.7912 129.701835,29.38688 C129.895872,29.784 129.934404,30.37968 129.934404,30.61768 C129.934404,30.89512 129.972936,31.05424 130.205505,31.05424 C130.476606,31.05424 130.55367,30.65712 130.592202,30.498 C130.669266,30.10088 130.74633,28.63072 130.786239,28.2744 C130.863303,26.72536 131.057339,26.32824 131.057339,26.09024 C131.057339,25.93112 131.018807,25.772 130.824771,25.772 C130.669266,25.772 130.476606,25.89168 130.282569,25.93112 C130.011468,25.97056 129.469266,26.09024 128.85,26.12968 C128.192202,26.16912 120.639908,26.12968 119.555505,26.12968 C118.586697,26.12968 116.419266,26.0508 114.637156,26.0508 C114.133486,26.0508 113.862385,26.12968 113.862385,26.36904 C113.862385,26.60704 114.094954,26.72672 114.443119,26.72672 C114.946789,26.72672 115.527523,26.76616 115.798624,26.8464 C116.883028,27.16464 117.192661,27.52096 117.269725,28.67288 C117.308257,29.74456 117.308257,30.69792 117.308257,35.8224 L117.308257,41.7792 L117.312385,41.7792 Z M80.7013761,48.21336 C80.5458716,49.32584 80.2362385,50.67632 79.3073394,50.79464 C78.7651376,50.87352 78.5325688,50.87352 78.2614679,50.87352 C77.9133028,50.87352 77.7192661,51.03264 77.7192661,51.19176 C77.7192661,51.51 77.990367,51.58888 78.3385321,51.58888 C79.4229358,51.58888 81.0495413,51.4692 81.7073394,51.4692 C82.3266055,51.4692 83.8761468,51.58888 85.3087156,51.58888 C85.8123853,51.58888 86.1220183,51.51 86.1220183,51.19176 C86.1220183,51.03264 85.8894495,50.87352 85.5798165,50.87352 C85.2701835,50.87352 84.9605505,50.83408 84.3798165,50.7144 C83.7990826,50.59472 83.333945,50.35672 83.333945,49.7216 C83.333945,49.16536 83.3724771,48.7288 83.4495413,48.13312 L85.0761468,34.94656 L85.1917431,34.94656 C86.3146789,37.28984 88.3279817,41.53984 88.5990826,42.17496 C88.9857798,43.12832 91.696789,48.29224 92.5100917,49.83992 C93.0522936,50.87216 93.4389908,51.54808 93.8655963,51.54808 C94.2522936,51.54808 94.4463303,51.22984 95.2211009,49.64136 L102.53945,34.54808 L102.655046,34.54808 L104.552752,49.164 C104.668349,50.11736 104.591284,50.51448 104.397248,50.59336 C104.164679,50.67224 104.01055,50.79192 104.01055,50.95104 C104.01055,51.1496 104.204587,51.30872 105.01789,51.34816 C106.373394,51.42704 111.213303,51.58616 112.065138,51.58616 C112.568807,51.58616 112.955505,51.46648 112.955505,51.18904 C112.955505,50.99048 112.722936,50.8708 112.413303,50.8708 C111.986697,50.8708 111.444495,50.83136 110.477064,50.55256 C109.431193,50.23432 109.12156,49.32176 108.811927,47.21648 L105.71422,26.36496 C105.598624,25.6496 105.21055,25.29192 104.93945,25.29192 C104.629817,25.29192 104.320183,25.56936 104.049083,26.1256 L94.912844,45.19552 L85.7738532,26.36904 C85.3087156,25.45512 85.0761468,25.296 84.7279817,25.296 C84.4568807,25.296 84.1472477,25.61424 84.0701835,26.17048 L80.7013761,48.21336 Z M60.9344037,41.22432 C60.8188073,41.22432 60.740367,41.14408 60.8188073,40.98632 L64.1105505,32.44688 C64.1490826,32.3272 64.1876147,32.12864 64.3045872,32.12864 C64.3816514,32.12864 64.4201835,32.3272 64.4600917,32.44688 L67.6747706,41.02576 C67.7133028,41.14544 67.6747706,41.22432 67.5192661,41.22432 L60.9344037,41.22432 L60.9344037,41.22432 Z M68.2541284,43.09024 C68.409633,43.09024 68.5252294,43.12968 68.6022936,43.32824 L71.2348624,50.12008 C71.390367,50.5172 71.1577982,50.83544 70.9252294,50.87488 C70.5770642,50.91432 70.5,51.034 70.5,51.23256 C70.5,51.47056 70.8866972,51.47056 71.5073394,51.51 C74.3724771,51.58888 76.8509174,51.58888 78.0522936,51.58888 C79.3307339,51.58888 79.5233945,51.51 79.5233945,51.2312 C79.5233945,50.9932 79.3678899,50.87352 79.0582569,50.87352 C78.6715596,50.87352 78.2834862,50.83408 77.7798165,50.75384 C77.1605505,50.59472 76.1917431,50.16496 74.8761468,47.11992 C72.7073394,42.01584 67.0155963,28.19416 66.2022936,26.32824 C65.8541284,25.57344 65.6986239,25.2552 65.1949541,25.2552 C64.846789,25.2552 64.5756881,25.65232 64.1876147,26.60568 L55.2811927,47.85432 C54.5834862,49.56248 54.0027523,50.59472 52.4545872,50.83272 C52.1449541,50.83272 51.7568807,50.87216 51.4472477,50.87216 C51.1761468,50.87216 51.0605505,51.03128 51.0605505,51.22984 C51.0605505,51.50728 51.2545872,51.58752 51.6798165,51.58752 C53.4605505,51.58752 55.2811927,51.46784 55.6293578,51.46784 C56.7137615,51.46784 58.3018349,51.58752 59.4247706,51.58752 C59.7729358,51.58752 59.9669725,51.50864 59.9669725,51.22984 C59.9669725,51.03128 59.8899083,50.87216 59.4633028,50.87216 L58.959633,50.87216 C57.9137615,50.87216 57.6041284,50.51448 57.6041284,49.9188 C57.6041284,49.52168 57.759633,48.688 58.1077982,47.85296 L59.9284404,43.32552 C60.0055046,43.12696 60.0440367,43.08752 60.2380734,43.08752 L68.2541284,43.08752 L68.2541284,43.09024 Z" id="Shape" fill="#0D2B3E" fill-rule="nonzero"></path>
        </g>
    </g>
</svg>