<?xml version="1.0" encoding="UTF-8"?>
<svg width="250px" height="68px" viewBox="0 0 250 68" version="1.1" xmlns="http://www.w3.org/2000/svg" xmlns:xlink="http://www.w3.org/1999/xlink">
    <!-- Generator: Sketch 46.2 (44496) - http://www.bohemiancoding.com/sketch -->
    <title>logo_zam_invoice413_147</title>
    <desc>Created with Sketch.</desc>
    <defs>
        <path d="M27.1529563,0.404884319 C35.8939589,0.404884319 43.6683805,4.53791774 48.6323907,10.9550129 C44.1928021,6.30462725 37.933162,3.40745501 30.996144,3.40745501 C17.531491,3.40745501 6.61568123,14.3232648 6.61568123,27.7879177 C6.61568123,41.2532134 17.531491,52.1690231 30.996144,52.1690231 C36.8380463,52.1690231 42.1998715,50.1131105 46.3984576,46.687018 C41.4826478,51.6298201 34.6748072,54.690874 27.1529563,54.690874 C12.1625964,54.690874 0.0102827763,42.5392031 0.0102827763,27.5494859 C0.0102827763,12.5571979 12.1625964,0.404884319 27.1529563,0.404884319" id="path-1"></path>
        <path d="M44.4151671,53.8232648 C38.9119537,60.0154242 30.8881748,63.9183805 21.9524422,63.9183805 C14.7532134,63.9183805 8.14588689,61.3849614 2.97107969,57.1625964 C9.02892031,63.2544987 17.4177378,67.0263496 26.6883033,67.0263496 C37.2506427,67.0263496 46.6670951,62.1298201 52.7975578,54.4839332 C52.183162,54.4550129 51.5694087,54.4280206 50.9569409,54.4273779 C49.622108,54.4511568 48.3026992,54.5456298 46.9575835,54.5456298 C46.0109254,54.5443445 45.1298201,54.2898458 44.4151671,53.8232648 L44.4151671,53.8232648 Z M26.688946,0.127892031 C15.9170951,0.127892031 6.33676093,5.22107969 0.218508997,13.1291774 C5.68958869,7.39845758 13.4042416,3.8277635 21.9524422,3.8277635 C38.5456298,3.8277635 51.9974293,17.279563 51.9974293,33.8727506 C51.9974293,34.1465296 51.9929306,34.4203085 51.9858612,34.6915167 L56.2062982,24.874036 C56.6625964,23.783419 57.2667095,22.7859897 58.1253213,22.125964 C53.4498715,9.29241645 41.1401028,0.127892031 26.688946,0.127892031 Z" id="path-3"></path>
        <polygon id="path-5" points="0.555912596 1.81169666 0.555912596 13.0841902 8.9125964 6.28213368 16.9775064 6.28213368 0.265424165 32.2808483 29.7679949 0.552056555"></polygon>
        <polygon id="path-7" points="29.6349614 34.6580977 29.6349614 30.3637532 29.6349614 20.9209512 21.277635 29.2095116 13.2120823 29.2095116 28.7602828 0.196658098 0.336760925 34.8348329 17.3843188 34.7313625 20.127892 34.714653"></polygon>
    </defs>
    <g id="Page-1" stroke="none" stroke-width="1" fill="none" fill-rule="evenodd">
        <g id="logo_zam_invoice413_147">
            <g id="Clipped" transform="translate(0.000000, 6.426735)">
                <mask id="mask-2" fill="white">
                    <use xlink:href="#path-1"></use>
                </mask>
                <g id="SVGID_1_"></g>
                <polygon id="Shape" fill="#FFFFFF" fill-rule="nonzero" mask="url(#mask-2)" points="60.0237789 52.183162 46.3881748 -9.79820051 -11.3811054 2.91066838 2.25449871 64.8926735"></polygon>
            </g>
            <g id="Clipped" transform="translate(5.141388, 0.000000)">
                <mask id="mask-4" fill="white">
                    <use xlink:href="#path-3"></use>
                </mask>
                <g id="SVGID_4_"></g>
                <polygon id="Shape" fill="#FFFFFF" fill-rule="nonzero" mask="url(#mask-4)" points="11.1073265 -22.4987147 -25.9215938 54.4466581 47.2365039 89.6529563 84.2654242 12.7075835"></polygon>
            </g>
            <g id="Clipped" transform="translate(14.781491, 16.709512)">
                <mask id="mask-6" fill="white">
                    <use xlink:href="#path-5"></use>
                </mask>
                <g id="SVGID_7_"></g>
                <polygon id="Shape" fill="#FFFFFF" fill-rule="nonzero" mask="url(#mask-6)" points="36.4260925 30.8155527 28.405527 -5.63881748 -6.39267352 2.01670951 1.62724936 38.4710797"></polygon>
            </g>
            <g id="Clipped" transform="translate(16.709512, 16.709512)">
                <mask id="mask-8" fill="white">
                    <use xlink:href="#path-7"></use>
                </mask>
                <g id="SVGID_10_"></g>
                <polygon id="Shape" fill="#FFFFFF" fill-rule="nonzero" mask="url(#mask-8)" points="4.28920308 -9.81169666 -11.496144 30.1619537 25.6825193 44.8438303 41.4678663 4.86953728"></polygon>
            </g>
            <path d="M239.485219,36.3849614 C239.485219,36.1111825 239.562339,36.033419 239.758355,36.033419 C240.422879,36.033419 244.564267,36.033419 245.541774,36.1510283 C246.753213,36.3071979 247.338689,37.0102828 247.534062,37.5571979 C247.690874,38.0257069 247.768638,38.4948586 247.768638,38.7692802 C247.768638,39.0430591 247.846401,39.3161954 248.080977,39.3161954 C248.471722,39.3161954 248.471722,38.9260925 248.471722,38.5751928 C248.471722,38.3007712 248.549486,36.5032134 248.627892,35.722365 C248.744859,34.5102828 248.940231,33.5340617 248.940231,33.2994859 C248.940231,33.06491 248.862468,32.9479434 248.706298,32.9479434 C248.472365,32.9479434 248.393316,33.1041131 248.198586,33.3386889 C247.808483,33.846401 247.260283,34.0032134 246.518638,34.0424165 C245.970437,34.0816195 245.424807,34.0816195 244.760283,34.0816195 L239.758997,34.1214653 C239.524422,34.1214653 239.485219,34.003856 239.485219,33.7692802 L239.485219,24.0012853 C239.485219,23.5713368 239.602828,23.4537275 239.836761,23.4537275 L245.854113,23.5713368 C247.338689,23.6105398 248.160026,24.1966581 248.433162,24.7435733 C248.667738,25.2904884 248.667738,25.9164524 248.667738,26.2287918 C248.706941,26.6580977 248.784704,26.8541131 249.058483,26.8541131 C249.33162,26.8541131 249.40874,26.6195373 249.448586,26.3071979 C249.52635,25.8380463 249.605398,23.5327763 249.643316,23.1420308 C249.760925,22.125964 249.956941,21.6568123 249.956941,21.3836761 C249.956941,21.1883033 249.838689,21.0321337 249.683162,21.0321337 C249.487147,21.0321337 249.291774,21.1883033 249.057841,21.2667095 C248.667095,21.3836761 248.197943,21.3836761 247.455656,21.4228792 C246.556555,21.4620823 238.624679,21.4620823 237.140746,21.4620823 C236.592545,21.4620823 235.694087,21.4228792 234.678021,21.3836761 C233.662596,21.3836761 232.529563,21.344473 231.513496,21.344473 C230.927378,21.344473 230.615039,21.4228792 230.615039,21.7352185 C230.615039,21.9697943 230.888817,22.0475578 231.27892,22.0475578 C231.826478,22.0475578 232.491003,22.0867609 232.803342,22.1651671 C234.093188,22.438946 234.404884,23.0636247 234.48329,24.3920308 C234.561054,25.6426735 234.561054,26.7365039 234.561054,32.6760925 L234.561054,39.5533419 C234.561054,43.3052699 234.561054,46.2345758 234.365681,47.875964 C234.209512,49.0096401 234.014139,49.8688946 233.232648,50.0257069 C232.880463,50.1034704 232.411954,50.1812339 231.825835,50.1812339 C231.39653,50.1812339 231.239717,50.2994859 231.239717,50.4942159 C231.239717,50.8071979 231.514139,50.8849614 232.061054,50.8849614 C233.54563,50.8849614 236.007712,50.7679949 237.023779,50.7679949 C238.039203,50.7679949 240.501285,50.8849614 242.962725,50.8849614 C243.548843,50.8849614 243.821979,50.7679949 243.821979,50.4942159 C243.821979,50.2988432 243.666452,50.1812339 243.158098,50.1812339 C242.61054,50.1812339 241.751928,50.1034704 241.203728,50.0257069 C240.031491,49.8688946 239.797558,49.0096401 239.679949,47.875964 C239.484576,46.2345758 239.484576,43.3052699 239.484576,39.5533419 L239.485219,36.3849614 L239.485219,36.3849614 L239.485219,36.3849614 Z M214.420951,49.5141388 C207.934447,49.5141388 204.02635,44.122108 204.02635,37.2840617 C204.02635,29.0784062 208.520566,27.0469152 212.349614,27.0469152 C217.898458,27.0469152 222.313625,31.5796915 222.313625,38.9254499 C222.314267,48.3811054 216.84383,49.5141388 214.420951,49.5141388 Z M213.014139,51.3116967 C221.884319,51.3116967 227.431877,45.3335476 227.431877,37.7133676 C227.431877,30.094473 222.039846,25.2885604 213.365039,25.2885604 C202.933162,25.2885604 198.947301,32.6349614 198.947301,38.3014139 C198.947301,44.1998715 203.011568,51.3116967 213.014139,51.3116967 Z M175.290488,36.5803342 C175.173522,36.5803342 175.055913,36.5417738 175.055913,36.346401 L175.055913,35.6426735 C175.055913,30.6021851 175.055913,29.3907455 175.133676,28.3361183 C175.212082,27.1638817 175.485219,26.6953728 176.423522,26.5385604 C176.813625,26.4601542 177.127249,26.4215938 177.401028,26.4215938 C177.830334,26.4215938 178.02635,26.3039846 178.02635,26.0694087 C178.02635,25.8348329 177.791774,25.7570694 177.321979,25.7570694 C175.955013,25.7570694 173.571337,25.8354756 172.750643,25.8354756 C171.812982,25.8354756 169.546915,25.7570694 167.709512,25.7570694 C167.241003,25.7570694 166.967866,25.8354756 166.967866,26.0694087 C166.967866,26.3046272 167.201799,26.4215938 167.553342,26.4215938 C168.061697,26.4215938 168.647172,26.4601542 168.920951,26.5385604 C170.014781,26.8515424 170.327763,27.2024422 170.405527,28.3361183 C170.445373,29.3913882 170.445373,30.3290488 170.445373,35.3695373 L170.445373,41.2300771 C170.445373,44.2782776 170.445373,46.8958869 170.289203,48.3026992 C170.171594,49.2802057 169.976221,49.9048843 169.273136,50.0604113 C168.960797,50.1394602 168.570051,50.1786632 168.061697,50.1786632 C167.631105,50.1786632 167.514139,50.3733933 167.514139,50.5302057 C167.514139,50.7647815 167.748072,50.8817481 168.178021,50.8817481 C169.54563,50.8817481 171.812339,50.7647815 172.59383,50.7647815 C173.570694,50.7647815 175.95437,50.8817481 178.180591,50.8817481 C178.611183,50.8817481 178.884319,50.7647815 178.884319,50.5302057 C178.884319,50.3733933 178.728149,50.1786632 178.336761,50.1786632 C177.829049,50.1786632 177.047558,50.1394602 176.579049,50.0604113 C175.562339,49.9048843 175.367609,49.279563 175.25,48.3419023 C175.094473,46.8952442 175.05527,44.3566838 175.05527,41.3078406 L175.05527,38.7686375 C175.05527,38.6124679 175.172237,38.5732648 175.289846,38.5732648 L188.262853,38.5732648 C188.340617,38.5732648 188.457584,38.651671 188.457584,38.7686375 L188.457584,41.3078406 C188.457584,44.3566838 188.457584,46.8952442 188.302057,48.3020566 C188.184447,49.279563 187.989075,49.9042416 187.285347,50.0604113 C186.973008,50.1381748 186.582262,50.1780206 186.03599,50.1780206 C185.645244,50.1780206 185.488432,50.3733933 185.488432,50.529563 C185.488432,50.7634961 185.762211,50.8811054 186.23072,50.8811054 C187.559126,50.8811054 189.982005,50.7634961 190.763496,50.7634961 C191.701799,50.7634961 193.967224,50.8811054 196.195373,50.8811054 C196.625321,50.8811054 196.8991,50.7634961 196.8991,50.529563 C196.8991,50.3733933 196.703085,50.1780206 196.351542,50.1780206 C195.803985,50.1780206 195.061697,50.1381748 194.593188,50.0604113 C193.53856,49.9042416 193.343188,49.2789203 193.225578,48.3412596 C193.069409,46.8946015 193.069409,44.277635 193.069409,41.2300771 L193.069409,35.3682519 C193.069409,30.3284062 193.069409,29.3901028 193.147815,28.3354756 C193.224936,27.1632391 193.499357,26.6947301 194.397172,26.5379177 C194.827763,26.4595116 195.138817,26.4209512 195.413882,26.4209512 C195.803985,26.4209512 196.037918,26.3033419 196.037918,26.0687661 C196.037918,25.8341902 195.804627,25.7564267 195.296915,25.7564267 C193.967866,25.7564267 191.701799,25.8341902 190.881748,25.8341902 C189.98329,25.8341902 187.560411,25.7564267 185.724293,25.7564267 C185.215938,25.7564267 184.981362,25.8341902 184.981362,26.0687661 C184.981362,26.3039846 185.177378,26.4209512 185.567481,26.4209512 C186.03599,26.4209512 186.623393,26.4595116 186.895887,26.5379177 C187.989717,26.8508997 188.302057,27.2024422 188.380463,28.3354756 C188.420308,29.3907455 188.458226,30.6015424 188.458226,35.6420308 L188.458226,36.3457584 C188.458226,36.5411311 188.34126,36.5796915 188.263496,36.5796915 L175.290488,36.5803342 L175.290488,36.5803342 Z M140.575835,32.7904884 L140.692802,32.7904884 C141.356684,33.3766067 144.984576,37.4003856 148.735219,40.9955013 C152.330977,44.4736504 156.622108,48.5758355 158.771208,50.5687661 C159.122751,50.9203085 159.598329,51.2718509 160.184447,51.2718509 C160.457584,51.2718509 160.731362,50.9595116 160.731362,50.2172237 L161.122108,29.2731362 C161.161311,27.3978149 161.43509,26.8116967 162.372108,26.5379177 C162.802057,26.4203085 163.075835,26.4203085 163.427378,26.4203085 C163.818123,26.4203085 164.013496,26.2641388 164.013496,26.0687661 C164.013496,25.7949871 163.700514,25.7557841 163.231362,25.7557841 C161.551414,25.7557841 160.261568,25.8335476 159.870823,25.8335476 C159.121465,25.8335476 157.28599,25.7557841 155.487789,25.7557841 C154.98072,25.7557841 154.629177,25.7949871 154.629177,26.0687661 C154.629177,26.2641388 154.746144,26.4203085 155.176735,26.4203085 C155.645244,26.4203085 156.465938,26.4203085 156.97365,26.6156812 C157.794344,26.9280206 158.107326,27.5141388 158.145887,29.5462725 L158.497429,44.3161954 L158.34126,44.3161954 C157.833548,43.8476864 153.261568,39.1587404 150.923522,36.8534704 C145.922237,31.968509 140.770566,26.6940874 140.339974,26.2641388 C139.755141,25.6780206 139.285347,25.1703085 138.856041,25.1703085 C138.504499,25.1703085 138.269923,25.6388175 138.269923,26.3033419 L137.956941,45.9967866 C137.917095,48.8881748 137.800771,49.7866324 136.901671,50.0218509 C136.433162,50.1401028 135.808483,50.1786632 135.338689,50.1786632 C135.02635,50.1786632 134.791131,50.3341902 134.791131,50.5302057 C134.791131,50.842545 135.10347,50.8817481 135.572622,50.8817481 C137.330334,50.8817481 138.97108,50.7647815 139.284704,50.7647815 C139.910026,50.7647815 141.512211,50.8817481 143.732648,50.8817481 C144.201157,50.8817481 144.514139,50.8039846 144.514139,50.5302057 C144.514139,50.3341902 144.319409,50.1786632 143.928663,50.1786632 C143.380463,50.1786632 142.716581,50.1394602 142.130463,49.9440874 C141.474293,49.7101542 141.043702,48.9286632 140.965938,46.3489717 L140.575835,32.7904884 Z M118.325835,41.2300771 C118.325835,44.2782776 118.325835,46.8958869 118.169666,48.3026992 C118.052057,49.2802057 117.856684,49.9048843 117.153599,50.0604113 C116.840617,50.1394602 116.449871,50.1786632 115.942159,50.1786632 C115.512853,50.1786632 115.395244,50.374036 115.395244,50.5302057 C115.395244,50.7647815 115.62982,50.8817481 116.059769,50.8817481 C116.762853,50.8817481 117.622751,50.8419023 118.443445,50.8039846 C119.263496,50.8039846 120.006427,50.7647815 120.397172,50.7647815 C121.413882,50.7647815 122.702442,50.8039846 124.383033,50.8419023 C126.062982,50.9203085 128.134319,50.9595116 130.71401,50.9595116 C132.003213,50.9595116 132.315553,50.9595116 132.549486,50.0996144 C132.744859,49.4357326 133.017995,47.1683805 133.017995,46.4273779 C133.017995,46.0751928 132.978792,45.6458869 132.705656,45.6458869 C132.47108,45.6458869 132.393316,45.8014139 132.315553,46.153599 C132.080977,47.5212082 131.690231,48.2242931 130.830334,48.6150386 C129.931877,49.0057841 128.485861,49.0449871 127.586761,49.0449871 C124.069409,49.0449871 123.015424,48.5366324 122.937018,46.2712082 C122.897815,45.2943445 122.937018,42.4820051 122.937018,41.3476864 L122.937018,38.690874 C122.937018,38.4955013 122.976864,38.3393316 123.132391,38.3393316 C123.991645,38.3393316 127.899743,38.4170951 128.525064,38.4948586 C129.81491,38.6131105 130.244859,39.1201799 130.439589,39.785347 C130.517352,40.214653 130.517352,40.6452442 130.557198,40.9967866 C130.557198,41.1523136 130.635604,41.2705656 130.87018,41.2705656 C131.182519,41.2705656 131.222365,40.8020566 131.222365,40.527635 C131.222365,40.2937018 131.299486,38.964653 131.378535,38.3007712 C131.573265,36.6201799 131.651671,36.0732648 131.651671,35.877892 C131.651671,35.6818766 131.534062,35.5263496 131.378535,35.5263496 C131.222365,35.5263496 131.104756,35.7210797 130.830334,35.9556555 C130.517352,36.3071979 130.010283,36.3856041 129.189589,36.4640103 C128.408098,36.5417738 123.953728,36.5417738 123.172879,36.5417738 C122.976864,36.5417738 122.937661,36.3849614 122.937661,36.1902314 L122.937661,27.9845758 C122.937661,27.7885604 123.015424,27.6715938 123.172879,27.6715938 C123.875964,27.6715938 127.978149,27.75 128.56491,27.8277635 C130.284062,27.9839332 130.557198,28.4530848 130.830977,29.0392031 C131.025707,29.4299486 131.064267,30.0160668 131.064267,30.25 C131.064267,30.5237789 131.104113,30.6799486 131.338046,30.6799486 C131.611825,30.6799486 131.690231,30.2892031 131.729434,30.1330334 C131.806555,29.7422879 131.884961,28.2962725 131.924165,27.9447301 C132.003213,26.4209512 132.197943,26.0302057 132.197943,25.7956298 C132.197943,25.6394602 132.15874,25.4832905 131.96401,25.4832905 C131.807841,25.4832905 131.612468,25.6002571 131.416452,25.6394602 C131.142674,25.6786632 130.596401,25.7956298 129.97108,25.8348329 C129.305913,25.874036 121.686375,25.8348329 120.592545,25.8348329 C119.615681,25.8348329 117.428021,25.7564267 115.630463,25.7564267 C115.122108,25.7564267 114.848972,25.8348329 114.848972,26.0687661 C114.848972,26.3039846 115.082905,26.4203085 115.43509,26.4203085 C115.943445,26.4203085 116.529563,26.4595116 116.802699,26.5379177 C117.89653,26.8502571 118.209512,27.2017995 118.287275,28.3348329 C118.327121,29.3901028 118.327121,30.3277635 118.327121,35.3688946 L118.325835,41.2300771 L118.325835,41.2300771 Z M81.3830334,47.5604113 C81.2262211,48.6542416 80.9138817,49.9826478 79.9762211,50.0996144 C79.4293059,50.1780206 79.1947301,50.1780206 78.9209512,50.1780206 C78.5694087,50.1780206 78.3733933,50.3341902 78.3733933,50.4903599 C78.3733933,50.8033419 78.6471722,50.8811054 78.9987147,50.8811054 C80.092545,50.8811054 81.7339332,50.7641388 82.3984576,50.7641388 C83.0237789,50.7641388 84.5867609,50.8811054 86.0321337,50.8811054 C86.5404884,50.8811054 86.8528278,50.8033419 86.8528278,50.4903599 C86.8528278,50.3341902 86.6182519,50.1780206 86.3059126,50.1780206 C85.9935733,50.1780206 85.6805913,50.1381748 85.094473,50.0218509 C84.5083548,49.9042416 84.0392031,49.6703085 84.0392031,49.0449871 C84.0392031,48.4974293 84.0784062,48.0674807 84.1568123,47.4813625 L85.7975578,34.5077121 L85.9151671,34.5077121 C87.0482005,36.8136247 89.0803342,40.9948586 89.3541131,41.6195373 C89.7448586,42.5571979 92.4800771,47.6368895 93.3007712,49.1606684 C93.8476864,50.1760925 94.2384319,50.8399743 94.6683805,50.8399743 C95.059126,50.8399743 95.2544987,50.527635 96.0359897,48.9652956 L103.420951,34.1169666 L103.53856,34.1169666 L105.453085,48.496144 C105.570051,49.4338046 105.492288,49.8245501 105.296915,49.9023136 C105.062339,49.9800771 104.90617,50.0976864 104.90617,50.2544987 C104.90617,50.4492288 105.101542,50.6053985 105.921594,50.6446015 C107.289203,50.722365 112.173522,50.8785347 113.032776,50.8785347 C113.541131,50.8785347 113.931234,50.7615681 113.931234,50.4877892 C113.931234,50.2930591 113.696658,50.1754499 113.384319,50.1754499 C112.953728,50.1754499 112.406812,50.1362468 111.429949,49.8631105 C110.374679,49.5501285 110.062982,48.651671 109.75,46.5816195 L106.624036,26.0674807 C106.507069,25.3643959 106.115681,25.0122108 105.842545,25.0122108 C105.529563,25.0122108 105.217224,25.285347 104.944087,25.8329049 L95.722365,44.5886889 L86.5006427,26.0674807 C86.0321337,25.1690231 85.7975578,25.0122108 85.4453728,25.0122108 C85.1715938,25.0122108 84.8592545,25.3245501 84.7808483,25.8714653 L81.3830334,47.5604113 Z M61.4383033,40.6838046 C61.3206941,40.6838046 61.2429306,40.6053985 61.3206941,40.4498715 L64.6420308,32.0482005 C64.6812339,31.9305913 64.7197943,31.7358612 64.8374036,31.7358612 C64.9158098,31.7358612 64.9543702,31.9312339 64.9935733,32.0482005 L68.2371465,40.4884319 C68.2763496,40.6053985 68.2371465,40.6838046 68.0809769,40.6838046 L61.4383033,40.6838046 L61.4383033,40.6838046 Z M68.8232648,42.5199229 C68.9794344,42.5199229 69.0970437,42.559126 69.1748072,42.753856 L71.8316195,49.43509 C71.9877892,49.8264781 71.7532134,50.1394602 71.5192802,50.1780206 C71.1677378,50.2172237 71.0893316,50.3335476 71.0893316,50.529563 C71.0893316,50.7641388 71.4800771,50.7641388 72.1053985,50.8033419 C74.9967866,50.8811054 77.4974293,50.8811054 78.7088689,50.8811054 C79.998072,50.8811054 80.1934447,50.8033419 80.1934447,50.529563 C80.1934447,50.2949871 80.0372751,50.1780206 79.7249357,50.1780206 C79.3341902,50.1780206 78.9434447,50.1388175 78.4357326,50.0597686 C77.8104113,49.9042416 76.8335476,49.4813625 75.5051414,46.4852185 C73.3174807,41.464653 67.5732648,27.8663239 66.7525707,26.029563 C66.4010283,25.2872751 66.2442159,24.9742931 65.7365039,24.9742931 C65.3849614,24.9742931 65.1111825,25.3650386 64.720437,26.3026992 L55.7339332,47.2069409 C55.0302057,48.8868895 54.4440874,49.9029563 52.8817481,50.1375321 C52.5694087,50.1375321 52.1786632,50.1773779 51.8656812,50.1773779 C51.5919023,50.1773779 51.4749357,50.3335476 51.4749357,50.5289203 C51.4749357,50.8026992 51.6703085,50.8798201 52.1002571,50.8798201 C53.8978149,50.8798201 55.7345758,50.7628535 56.0861183,50.7628535 C57.1805913,50.7628535 58.7821337,50.8798201 59.9151671,50.8798201 C60.2673522,50.8798201 60.4627249,50.8026992 60.4627249,50.5289203 C60.4627249,50.3335476 60.3843188,50.1773779 59.9543702,50.1773779 L59.4460154,50.1773779 C58.3913882,50.1773779 58.0784062,49.8251928 58.0784062,49.2390746 C58.0784062,48.848329 58.2345758,48.027635 58.5867609,47.2075835 L60.4228792,42.7532134 C60.5006427,42.5578406 60.5398458,42.5186375 60.7352185,42.5186375 L68.8232648,42.5199229 L68.8232648,42.5199229 Z" id="Shape" fill="#FFFFFF" fill-rule="nonzero"></path>
        </g>
    </g>
</svg>