<?xml version="1.0" encoding="UTF-8"?>
<svg width="32px" height="32px" viewBox="0 0 32 32" version="1.1" xmlns="http://www.w3.org/2000/svg" xmlns:xlink="http://www.w3.org/1999/xlink">
    <!-- Generator: Sketch 46.2 (44496) - http://www.bohemiancoding.com/sketch -->
    <title>zamenhof-circled-logo</title>
    <desc>Created with Sketch.</desc>
    <defs>
        <path d="M12.830114,0.00620209059 C16.9531202,0.00620209059 20.6202705,1.92202787 22.9617713,4.89655052 C20.8678474,2.74070383 17.9152641,1.39795122 14.6430578,1.39795122 C8.2918599,1.39795122 3.14317817,6.45761672 3.14317817,12.6994007 C3.14317817,18.9411847 8.2918599,24.0008502 14.6430578,24.0008502 C17.3984965,24.0008502 19.9273173,23.0475889 21.9079322,21.4598537 C19.5893553,23.7515261 16.3780607,25.1699443 12.830114,25.1699443 C5.75976429,25.1699443 0.0275085399,19.5365854 0.0275085399,12.5877631 C0.0275085399,5.63956098 5.75910933,0.00620209059 12.830114,0.00620209059" id="path-1"></path>
        <polygon id="path-3" points="0.418677141 0.806456519 0.418677141 5.99538119 4.43131891 2.86354951 8.30329488 2.86354951 0.279344672 14.8316426 14.4439234 0.22628239"></polygon>
    </defs>
    <g id="Page-1" stroke="none" stroke-width="1" fill="none" fill-rule="evenodd">
        <g id="zamenhof-circled-logo">
            <polygon id="Shape" fill-opacity="0" fill="#FFFFFF" fill-rule="nonzero" points="0 0 32 0 32 32 0 32"></polygon>
            <path d="M22.6690793,2.19098078 C25.8354398,3.73345024 28.4317715,6.36005539 29.9289492,9.5201735 C30.8980506,11.5531223 31.4077728,13.794499 31.4177365,16.0420973 C31.4329443,18.0392712 31.0585187,20.0374821 30.3117653,21.8931117 C29.5356451,23.8218467 28.3672696,25.5929646 26.8921169,27.0701059 C25.2758991,28.6970871 23.294695,29.9647637 21.1304735,30.7538859 C19.1781117,31.4688659 17.0831117,31.7877293 15.0038438,31.7001067 C12.7258262,31.6109286 10.4740289,31.0224571 8.44877483,29.9875767 C6.99984238,29.2420066 5.6421565,28.2760837 4.50314771,27.1162504 C4.59491868,27.1738013 4.68039678,27.238611 4.76482607,27.306013 C6.93953575,28.9926191 9.62396759,30.016093 12.380243,30.2141512 C13.998034,30.3308086 15.632606,30.1809687 17.1969077,29.7527066 C18.9625811,29.2741522 20.630715,28.4456257 22.0775498,27.3376401 C23.8993346,25.9491583 25.3681945,24.1147863 26.3173684,22.0434701 C27.1889304,20.1515471 27.6147477,18.067269 27.5722708,15.9897311 C27.5355625,14.3679347 27.221968,12.7580632 26.6267677,11.2456654 C25.8107927,9.14946235 24.468839,7.26013169 22.761899,5.77884252 C20.9773471,4.22548504 18.7952957,3.12890591 16.4711304,2.62857548 C13.3619301,1.95144435 10.0361503,2.34393153 7.18548194,3.74900456 C5.69564586,4.47383559 4.34687487,5.46412691 3.2,6.6498841 C3.31117397,6.46686168 3.44909262,6.32013265 3.58596246,6.15318301 C4.34110641,5.25932844 5.19798502,4.45205955 6.13509768,3.74641217 C8.1703155,2.21016443 10.5867761,1.17735799 13.1159839,0.775538213 C16.351566,0.252913265 19.7350304,0.737170905 22.6690793,2.19098078 Z" id="Shape" fill="#FFFFFF" fill-rule="nonzero"></path>
            <path d="M14.3075766,3.72833766 C15.9596732,3.79951283 17.5949117,4.18788172 19.0952851,4.86817198 C20.9080607,5.68565496 22.5143242,6.92554713 23.758138,8.45271881 C23.7913275,8.49707435 23.8239901,8.54194565 23.8545455,8.58836425 C23.7223145,8.48675911 23.6085221,8.36710229 23.4905152,8.25054005 C21.7430649,6.60319579 19.4551008,5.52318989 17.0486029,5.2178587 C15.0377443,4.95378849 12.9583995,5.22146904 11.0876741,5.99098614 C9.35813549,6.69912755 7.80771449,7.82916239 6.62185052,9.25111859 C5.44863015,10.6452236 4.62416231,12.3240294 4.25222985,14.0936093 C3.87766331,15.8425587 3.93666676,17.6766088 4.42344522,19.3987386 C4.94710083,21.2750812 5.98440254,23.0013371 7.38836855,24.3758432 C8.71436571,25.6740165 10.3638282,26.6488069 12.1576384,27.1846837 C13.835549,27.6901306 15.6304129,27.8066929 17.3631124,27.5348862 C19.1026605,27.2635953 20.772142,26.5910415 22.2056098,25.5894315 C22.4184436,25.4450181 22.6144194,25.2794584 22.8272533,25.1360765 C22.0069999,25.9597487 21.0545157,26.6622167 20.0340721,27.2311023 C17.536435,28.6241759 14.5646631,29.1435483 11.7267025,28.706182 C9.72269251,28.4060085 7.79928543,27.6251446 6.16193971,26.4553961 C4.68000486,25.401694 3.43619107,24.0359559 2.53375439,22.4762912 C1.74563688,21.1177738 1.22250809,19.6138114 1.00071834,18.0670407 C0.718344686,16.1159126 0.903784098,14.1034087 1.55124159,12.2373813 C2.15971466,10.4786325 3.17594372,8.86378123 4.49403863,7.53053611 C5.64355226,6.37265012 7.02223107,5.42880542 8.5320872,4.7779136 C10.3401215,3.99550245 12.3335951,3.636532 14.3075766,3.72833766 Z" id="Shape" fill="#FFFFFF" fill-rule="nonzero"></path>
            <path d="M22.2860577,8.28571429 C22.180992,8.49687955 22.0610685,8.70187941 21.9475126,8.90944818 C19.5936158,13.1646081 17.2370659,17.419768 14.8852917,21.6759555 C16.1551012,21.6764692 17.4254413,21.672359 18.6952508,21.6780106 C19.4105468,21.0028983 20.1184138,20.3221344 20.8225664,19.6362326 C21.4577365,19.0571979 22.0520477,18.4355192 22.6877484,17.857512 C22.6935854,19.9737887 22.6893403,22.091093 22.6904016,24.2073697 C21.5930484,24.2022319 20.4983485,24.2289486 19.4004647,24.2191867 C18.6581064,24.2438484 17.9146868,24.2284349 17.1717978,24.2325451 C16.2707796,24.2659411 15.3671082,24.2258659 14.4655594,24.2597757 C13.1909742,24.2510414 11.9195728,24.2787857 10.6449875,24.2705652 C10.006103,24.2890614 9.36615724,24.2895752 8.72727273,24.2777581 C11.9132051,20.508638 15.1102809,16.7467108 18.2999277,12.9806734 C19.6286377,11.4177422 20.9520414,9.8424801 22.2860577,8.28571429 Z" id="Shape" fill="#FFFFFF" fill-rule="nonzero"></path>
            <path d="M21.8181818,8.57142857 C20.5126964,9.98085745 19.1861378,11.374122 17.8738036,12.7778151 C14.5811144,16.2813122 11.2884252,19.7848093 7.9962628,23.2888278 C7.95042856,23.3362781 7.90301384,23.3832069 7.85454545,23.4285714 C7.95042856,23.2591062 8.06158975,23.1005911 8.16748264,22.9368617 C10.6925801,19.0443768 13.2213654,15.1529348 15.7454093,11.2599285 C14.5200021,11.2599285 13.2951217,11.2604499 12.0697145,11.2599285 C11.9090312,11.2401141 11.7688944,11.430958 11.6445624,11.5138656 C10.5498091,12.3956059 9.45505582,13.2778677 8.36030252,14.1590867 C8.23965838,14.2597229 8.11690693,14.3561877 7.98994083,14.4484811 C7.98572619,12.6855218 7.98572619,10.9225624 7.98783351,9.16012454 C8.17222411,9.14708876 8.3566147,9.13874586 8.5410053,9.13248868 C12.9653259,8.94894485 17.394388,8.74871522 21.8181818,8.57142857 Z" id="Shape" fill="#FFFFFF" fill-rule="nonzero"></path>
            <g id="green" transform="translate(0.872727, 3.714286)">
                <g id="Group">
                    <g id="SVGID_1_-link" fill="#339900">
                        <path d="M12.830114,0.00620209059 C16.9531202,0.00620209059 20.6202705,1.92202787 22.9617713,4.89655052 C20.8678474,2.74070383 17.9152641,1.39795122 14.6430578,1.39795122 C8.2918599,1.39795122 3.14317817,6.45761672 3.14317817,12.6994007 C3.14317817,18.9411847 8.2918599,24.0008502 14.6430578,24.0008502 C17.3984965,24.0008502 19.9273173,23.0475889 21.9079322,21.4598537 C19.5893553,23.7515261 16.3780607,25.1699443 12.830114,25.1699443 C5.75976429,25.1699443 0.0275085399,19.5365854 0.0275085399,12.5877631 C0.0275085399,5.63956098 5.75910933,0.00620209059 12.830114,0.00620209059" id="SVGID_1_"></path>
                    </g>
                    <g id="Clipped">
                        <mask id="mask-2" fill="white">
                            <use xlink:href="#path-1"></use>
                        </mask>
                        <g id="SVGID_1_"></g>
                        <polygon id="Shape" fill="#FFFFFF" fill-rule="nonzero" mask="url(#mask-2)" points="28.3344511 24.0082927 21.9026925 -4.7235122 -5.34582626 1.16785366 1.08593236 29.8996585"></polygon>
                    </g>
                </g>
                <g id="Group" transform="translate(6.485781, 4.571429)">
                    <g id="SVGID_6_-link" fill="#FFFFFF">
                        <polygon id="SVGID_6_" points="0.418677141 0.806456519 0.418677141 5.99538119 4.43131891 2.86354951 8.30329488 2.86354951 0.279344672 14.8316426 14.4439234 0.22628239"></polygon>
                    </g>
                    <g id="Clipped">
                        <mask id="mask-4" fill="white">
                            <use xlink:href="#path-3"></use>
                        </mask>
                        <g id="SVGID_6_"></g>
                        <polygon id="Shape" fill="#FFFFFF" fill-rule="nonzero" mask="url(#mask-4)" points="17.6405703 14.1572364 13.7899275 -2.62408478 -2.9166355 0.900072727 0.933340614 17.6813939"></polygon>
                    </g>
                </g>
            </g>
        </g>
    </g>
</svg>